<?xml version="1.0" encoding="UTF-8"?>
<svg version="1.1" xmlns="http://www.w3.org/2000/svg" width="878" height="863">
<path d="M0 0 C289.74 0 579.48 0 878 0 C878 284.79 878 569.58 878 863 C588.26 863 298.52 863 0 863 C0 578.21 0 293.42 0 0 Z " fill="#020201" transform="translate(0,0)"/>
<path d="M0 0 C16.42735164 8.80313052 30.4912642 21.26915488 44 34 C44.7321875 34.68964844 45.464375 35.37929688 46.21875 36.08984375 C51.63043303 41.34046478 56.3220234 47.09590934 61 53 C61.78246094 53.95390625 62.56492187 54.9078125 63.37109375 55.890625 C73.86562024 68.98779405 81.90221428 83.68208986 89.8125 98.4375 C90.34665527 99.41444824 90.88081055 100.39139648 91.43115234 101.39794922 C91.91406738 102.31721191 92.39698242 103.23647461 92.89453125 104.18359375 C93.54192261 105.39873657 93.54192261 105.39873657 94.20239258 106.63842773 C96.36746186 113.04880887 91.34994096 120.04219727 88.625 125.6875 C88.08697754 126.8022168 87.54895508 127.91693359 86.99462891 129.06542969 C79.77182591 143.79884734 71.38329179 157.30569342 61 170 C60.21882813 170.98484375 59.43765625 171.9696875 58.6328125 172.984375 C46.18963731 188.25730654 32.01565922 202.49606917 16 214 C14.98421875 214.74894531 13.9684375 215.49789062 12.921875 216.26953125 C3.7009147 222.88406433 -6.08038785 228.50935375 -16 234 C-16.64211426 234.3594873 -17.28422852 234.71897461 -17.94580078 235.08935547 C-40.50824658 247.57394943 -64.69500403 254.81228001 -90 259 C-91.56959473 259.28931396 -91.56959473 259.28931396 -93.17089844 259.58447266 C-103.23694954 261.28013899 -113.21830929 261.30445468 -123.40332031 261.26074219 C-126.36283981 261.25004396 -129.32174911 261.26068103 -132.28125 261.2734375 C-147.08898868 261.28543616 -161.28163097 260.1731202 -175.75 256.8125 C-176.66104492 256.60471924 -177.57208984 256.39693848 -178.51074219 256.18286133 C-187.67738082 253.99863556 -196.48660519 250.90998197 -205.28613281 247.56323242 C-207.01599767 246.89593145 -207.01599767 246.89593145 -209 247 C-208.62488281 247.8971875 -208.24976563 248.794375 -207.86328125 249.71875 C-198.01046164 273.58641196 -192.78955531 297.6773206 -192.86962891 323.55957031 C-192.87500866 325.6283291 -192.86964213 327.6968726 -192.86328125 329.765625 C-192.86035969 336.25207281 -192.96140985 342.58711796 -194 349 C-197.8070441 348.41224433 -200.61653201 347.31215683 -203.95703125 345.41015625 C-205.36831299 344.61472412 -205.36831299 344.61472412 -206.80810547 343.80322266 C-208.84298305 342.62423053 -210.87181984 341.43476112 -212.89501953 340.23583984 C-217.53097518 337.49485205 -221.98212236 334.894066 -227.03515625 333.00390625 C-231.60910787 331.14379613 -235.43847097 329.3926459 -238 325 C-239.86398446 316.96667516 -239.25555751 308.54987173 -239.03193665 300.35957336 C-238.67230219 283.02588854 -241.76658012 264.48779427 -247 248 C-247.2573291 247.17081055 -247.5146582 246.34162109 -247.77978516 245.48730469 C-257.17636841 215.65806072 -271.77742822 189.28871737 -291.40185547 165.00927734 C-294.01030882 161.72978283 -296.50791109 158.36834134 -299 155 C-295.91526199 156.47853583 -293.7382542 158.01613502 -291.25 160.375 C-284.5583203 166.43042163 -277.30503074 171.71622144 -270 177 C-269.41009277 177.43070801 -268.82018555 177.86141602 -268.21240234 178.30517578 C-251.87560143 190.12039298 -233.23236681 199.90784481 -214 206 C-213.21286621 206.25330078 -212.42573242 206.50660156 -211.61474609 206.76757812 C-152.08582603 225.76008385 -90.07600679 219.62509856 -34.33886719 191.80200195 C-19.2919097 183.99027426 -4.65739206 174.29336248 8 163 C9.45212891 161.71029297 9.45212891 161.71029297 10.93359375 160.39453125 C21.06775311 151.29176021 30.80072284 141.91820844 39 131 C39.53544434 130.3085791 40.07088867 129.6171582 40.62255859 128.90478516 C42.45514713 126.53393293 44.26068846 124.14430347 46.0625 121.75 C46.65981934 120.98099365 47.25713867 120.2119873 47.87255859 119.41967773 C51.11282644 115.10029016 51.11282644 115.10029016 52.1796875 109.93359375 C50.60184677 106.00989048 48.51082746 102.74776297 46.0625 99.3125 C45.57104492 98.61060547 45.07958984 97.90871094 44.57324219 97.18554688 C40.15894829 90.99590836 35.23729054 85.50912223 30 80 C28.8684037 78.67226034 27.74288619 77.33930327 26.625 76 C15.08792896 62.8338518 0.40005075 51.83415394 -14.3125 42.46484375 C-16 41 -16 41 -16.9609375 39.25 C-17.02214844 35.72425006 -15.2749392 33.07438901 -13.625 30.0625 C-10.08934887 23.335828 -6.96270597 16.49762368 -4 9.5 C-3.60248535 8.56164307 -3.2049707 7.62328613 -2.79541016 6.65649414 C-1.85969444 4.43927265 -0.92763088 2.22061358 0 0 Z " fill="#DDA253" transform="translate(781,323)"/>
<path d="M0 0 C4.85240261 1.46534577 9.1560962 3.4759356 13.62890625 5.80859375 C14.69708839 6.35967552 14.69708839 6.35967552 15.78684998 6.92189026 C17.28465003 7.69565321 18.78138416 8.47148264 20.27709961 9.24926758 C22.5567119 10.43449064 24.83955517 11.61328703 27.12304688 12.79101562 C28.58352677 13.54650117 30.04381963 14.30234842 31.50390625 15.05859375 C32.18111221 15.40869003 32.85831818 15.75878632 33.55604553 16.11949158 C35.3770743 17.06751039 37.18890112 18.03314619 39 19 C39.9686499 19.45213867 40.9372998 19.90427734 41.93530273 20.37011719 C44 22 44 22 44.58007812 24.71020508 C44.56396484 25.80228271 44.54785156 26.89436035 44.53125 28.01953125 C44.53366699 29.25364746 44.53608398 30.48776367 44.53857422 31.75927734 C44.53114197 32.41837097 44.52370972 33.0774646 44.51605225 33.75653076 C44.12945552 83.27178106 62.14840644 132.13249596 94 170 C95.00782922 171.21222568 96.01564136 172.42446557 97.0234375 173.63671875 C102.28627746 180.02415078 102.28627746 180.02415078 108 186 C107.67 186.66 107.34 187.32 107 188 C105.99324219 187.20078125 104.98648437 186.4015625 103.94921875 185.578125 C82.60605261 168.83198802 60.06934522 156.21036246 35 146 C34.26040039 145.69787598 33.52080078 145.39575195 32.75878906 145.08447266 C23.01527007 141.14845438 13.24494168 138.30769898 3 136 C1.82695312 135.72285156 0.65390625 135.44570313 -0.5546875 135.16015625 C-15.72863964 131.70214675 -30.45582969 130.6700153 -45.9621582 130.73925781 C-48.7985592 130.74994746 -51.63432156 130.73931359 -54.47070312 130.7265625 C-105.9766097 130.68523401 -156.46491738 148.72970739 -196 182 C-196.51208008 182.4232959 -197.02416016 182.8465918 -197.55175781 183.28271484 C-211.57846334 194.88439519 -224.24884318 207.27337596 -235 222 C-235.41604492 222.56058105 -235.83208984 223.12116211 -236.26074219 223.69873047 C-241.03615676 229.47323823 -241.03615676 229.47323823 -243.01953125 236.359375 C-241.53684074 240.19960023 -239.31530484 243.34499479 -236.9375 246.6875 C-236.18823242 247.75532715 -236.18823242 247.75532715 -235.42382812 248.84472656 C-228.32227891 258.88626245 -220.47328427 268.09484342 -212 277 C-211.10982178 277.94117676 -211.10982178 277.94117676 -210.20166016 278.90136719 C-201.32961114 288.22237424 -192.15174818 296.35906498 -181.65478516 303.80273438 C-179.37103015 305.45507054 -177.18099521 307.21517027 -175 309 C-176.7332863 314.79053187 -179.2801255 320.15317945 -181.8125 325.625 C-185.36334097 333.35916351 -188.83303847 341.09926438 -192 349 C-206.96791768 341.65140993 -219.36982384 329.72873697 -231 318 C-232.175625 316.824375 -232.175625 316.824375 -233.375 315.625 C-234.24125 314.75875 -235.1075 313.8925 -236 313 C-236.51304687 312.51015625 -237.02609375 312.0203125 -237.5546875 311.515625 C-255.33638484 294.3075308 -268.49048332 272.17777611 -279.6875 250.3125 C-280.48196533 248.78906982 -280.48196533 248.78906982 -281.29248047 247.23486328 C-286.0961676 237.64185697 -286.0961676 237.64185697 -285 232 C-283.34194596 227.77650878 -281.33595641 223.77655818 -279.25 219.75 C-278.36852295 218.02378418 -278.36852295 218.02378418 -277.46923828 216.26269531 C-270.05164688 201.95265173 -261.70363606 188.52085859 -251.48828125 176.04296875 C-250.01380772 174.23980567 -248.56314599 172.41597555 -247.16796875 170.55078125 C-213.06679165 125.21084149 -156.23780434 97.26350623 -101.30786133 88.40454102 C-90.7163517 86.91698059 -80.24756332 86.64108357 -69.5625 86.6875 C-68.6880423 86.68932281 -67.81358459 86.69114563 -66.91262817 86.69302368 C-38.43242815 86.79258779 -10.64140474 90.59376003 16 101 C14.54588993 96.50041453 13.04550272 92.03505812 11.31640625 87.6328125 C6.99895583 76.60135563 3.89585788 65.69726958 2 54 C1.82049805 52.94482178 1.64099609 51.88964355 1.45605469 50.80249023 C-0.20044369 40.02283432 -0.23152481 29.44310509 -0.125 18.5625 C-0.11493873 16.75195814 -0.10581851 14.94141079 -0.09765625 13.13085938 C-0.07591823 8.75376742 -0.04156645 4.3769467 0 0 Z " fill="#DDA353" transform="translate(285,198)"/>
<path d="M0 0 C0 3.88038549 -1.01089279 4.3378388 -3.6875 7.0625 C-24.5518684 29.66283626 -39.82066471 58.77750818 -49 88 C-49.37769531 89.18851563 -49.75539063 90.37703125 -50.14453125 91.6015625 C-67.16733757 148.08922693 -57.13630242 209.26344981 -29.61303711 260.60400391 C-26.09773475 266.9988551 -22.27158699 273.07706972 -18 279 C-17.31550781 279.95777344 -16.63101563 280.91554688 -15.92578125 281.90234375 C-2.54696703 300.18111866 12.96007454 317.33228776 31.29003906 330.74316406 C33.07317725 332.0537859 34.82860521 333.39722216 36.5859375 334.7421875 C37.74321793 335.60108286 38.90201547 336.45793877 40.0625 337.3125 C41.08472656 338.07175781 42.10695313 338.83101562 43.16015625 339.61328125 C45.84421749 341.27216124 45.84421749 341.27216124 48.37890625 340.5625 C51.98765882 338.4112317 55.45103127 336.12187341 58.875 333.6875 C59.61878906 333.1605957 60.36257813 332.63369141 61.12890625 332.09082031 C68.26322638 326.95205068 74.8748249 321.3026966 81.40625 315.42626953 C82.81874004 314.16221211 84.25171286 312.9211254 85.6875 311.68359375 C90.59436761 307.44810498 94.83630112 302.95793045 99 298 C99.99731178 296.8399527 100.99614257 295.68121043 101.99609375 294.5234375 C103.08086218 293.26573971 104.16549674 292.00792645 105.25 290.75 C105.76989502 290.14720215 106.28979004 289.5444043 106.82543945 288.92333984 C109.31964516 286.01620227 111.75423172 283.10715885 114 280 C119.25286105 280.56016426 123.39364285 283.18944244 127.9375 285.6875 C135.80147559 289.92913801 143.70787762 293.67232935 152 297 C152 307.99851593 137.26945912 319.47606049 130 327 C129.44618652 327.58104492 128.89237305 328.16208984 128.32177734 328.76074219 C120.45514195 337.00378294 112.15483073 344.2226849 103 351 C102.42636719 351.42909668 101.85273438 351.85819336 101.26171875 352.30029297 C92.53161784 358.80599175 83.50221574 364.68533244 74 370 C73.01338379 370.55252441 72.02676758 371.10504883 71.01025391 371.67431641 C67.68679871 373.51682291 64.34674281 375.32517888 61 377.125 C59.38774536 378.01505737 59.38774536 378.01505737 57.74291992 378.9230957 C50.17453068 382.92152356 50.17453068 382.92152356 45.4921875 383.234375 C40.11282407 381.33294453 35.15431078 378.80618509 30.125 376.125 C29.01745361 375.54073242 27.90990723 374.95646484 26.76879883 374.35449219 C13.05482692 367.02260439 0.18609456 358.67229636 -12 349 C-12.96421875 348.24074219 -13.9284375 347.48148438 -14.921875 346.69921875 C-31.21291516 333.40589537 -46.01028227 318.28874476 -58 301 C-58.46664062 300.33500488 -58.93328125 299.67000977 -59.4140625 298.98486328 C-70.81664535 282.57772505 -80.05047653 264.71708717 -87 246 C-87.41378906 245.04738281 -87.82757813 244.09476563 -88.25390625 243.11328125 C-107.94325166 196.8834389 -105.28932978 138.37608459 -88 92 C-88.94617188 92.36351562 -89.89234375 92.72703125 -90.8671875 93.1015625 C-123.7089899 105.62694073 -153.04997273 109.39341099 -188 109 C-186.50459322 104.37591677 -184.69595834 100.07946979 -182.5 95.75 C-182.15614258 95.06832764 -181.81228516 94.38665527 -181.45800781 93.68432617 C-178.65167268 88.17455486 -175.73068421 82.72970476 -172.75 77.3125 C-172.33814453 76.5587207 -171.92628906 75.80494141 -171.50195312 75.02832031 C-170.37041552 72.99540389 -169.19166092 70.99803405 -168 69 C-167.46117187 68.01773438 -166.92234375 67.03546875 -166.3671875 66.0234375 C-162.50222091 62.71972018 -158.29434118 63.30452506 -153.375 63.3125 C-151.27724344 63.26604676 -149.17957938 63.21522276 -147.08203125 63.16015625 C-146.0451416 63.13711426 -145.00825195 63.11407227 -143.93994141 63.09033203 C-94.75634486 61.57912702 -44.67723883 39.26298707 -8 7 C-6.79923828 5.96166016 -6.79923828 5.96166016 -5.57421875 4.90234375 C-3.70590095 3.27926283 -1.84767027 1.64649128 0 0 Z " fill="#DDA253" transform="translate(391,478)"/>
<path d="M0 0 C2.12689204 1.53274571 3.86978107 3.1808419 5.68261719 5.0769043 C6.40989014 5.82649414 7.13716309 6.57608398 7.88647461 7.34838867 C8.65709229 8.14696289 9.42770996 8.94553711 10.22167969 9.76831055 C17.66077264 17.32918438 25.20845009 24.18147858 33.84667969 30.33081055 C34.4188623 30.74202148 34.99104492 31.15323242 35.58056641 31.5769043 C71.74663297 57.3110298 112.9994463 69.5594941 156.84667969 73.33081055 C156.84667969 73.66081055 156.84667969 73.99081055 156.84667969 74.33081055 C156.099104 74.42056152 155.35152832 74.5103125 154.58129883 74.6027832 C125.30272229 78.1908331 97.36548075 84.01519634 70.84667969 97.33081055 C70.23083008 97.63744629 69.61498047 97.94408203 68.98046875 98.26000977 C20.79648207 122.45233416 -18.35504203 166.58338917 -35.69628906 217.78393555 C-36.18759608 219.29774491 -36.6733226 220.81337733 -37.15332031 222.33081055 C-37.51031006 223.45712891 -37.51031006 223.45712891 -37.87451172 224.60620117 C-43.2214861 241.84398691 -46.25747346 259.69224054 -46.35644531 277.7565918 C-46.36336899 278.61852646 -46.37029266 279.48046112 -46.37742615 280.36851501 C-46.39457935 283.12682722 -46.40101018 285.88494756 -46.40332031 288.64331055 C-46.40465973 289.58356079 -46.40599915 290.52381104 -46.40737915 291.49255371 C-46.40320092 304.98910458 -45.99486871 318.08932215 -43.15332031 331.33081055 C-43.00926758 332.03560547 -42.86521484 332.74040039 -42.71679688 333.46655273 C-42.08455074 336.55896748 -41.42273802 339.6400702 -40.70410156 342.71362305 C-40.15332031 345.33081055 -40.15332031 345.33081055 -40.15332031 348.33081055 C-39.58484375 348.37979492 -39.01636719 348.4287793 -38.43066406 348.47924805 C-37.65851563 348.55401367 -36.88636719 348.6287793 -36.09082031 348.70581055 C-35.33671875 348.77541992 -34.58261719 348.8450293 -33.80566406 348.91674805 C-31.15332031 349.33081055 -31.15332031 349.33081055 -27.89550781 350.26831055 C-12.5260336 354.63208611 3.37272063 354.60956856 19.22167969 354.58081055 C20.11956207 354.57994446 21.01744446 354.57907837 21.9425354 354.57818604 C33.28003986 354.55000869 44.54013674 354.18631177 55.84667969 353.33081055 C56.215271 354.3237915 56.5838623 355.31677246 56.96362305 356.33984375 C59.33832536 362.72989592 61.74737949 369.10243922 64.24902344 375.4440918 C64.65773682 376.48041748 65.0664502 377.51674316 65.48754883 378.58447266 C66.30536469 380.65287539 67.12613096 382.7201142 67.94995117 384.78613281 C68.32579346 385.73673584 68.70163574 386.68733887 69.08886719 387.66674805 C69.59716064 388.94364502 69.59716064 388.94364502 70.11572266 390.24633789 C70.84667969 392.33081055 70.84667969 392.33081055 70.84667969 394.33081055 C45.80924395 400.52998334 17.01324899 398.61616856 -8.15332031 394.33081055 C-8.94174316 394.19690918 -9.73016602 394.06300781 -10.54248047 393.92504883 C-23.20974412 391.66254774 -35.30853289 387.56489603 -47.41259766 383.26977539 C-49.8395623 382.43830327 -52.26721508 381.70332788 -54.73535156 381.0065918 C-60.6598641 379.22474057 -65.19269754 377.24045118 -68.56030273 371.78222656 C-70.35357739 368.39874922 -71.75380349 364.89125057 -73.15332031 361.33081055 C-73.70560303 360.00968262 -73.70560303 360.00968262 -74.26904297 358.66186523 C-80.29808756 344.2189871 -84.59172436 329.76705442 -87.15332031 314.33081055 C-87.31558105 313.36079102 -87.4778418 312.39077148 -87.64501953 311.39135742 C-91.73849817 285.58850137 -92.79911496 256.9764885 -87.15332031 231.33081055 C-86.98171387 230.49807617 -86.81010742 229.6653418 -86.63330078 228.80737305 C-79.17022697 192.84589495 -63.2704493 160.07896414 -39.15332031 132.33081055 C-38.61296143 131.69908936 -38.07260254 131.06736816 -37.51586914 130.41650391 C-26.29790955 117.40174907 -14.04555369 105.44904141 -0.15332031 95.33081055 C0.96157891 94.49789989 2.07616075 93.66456422 3.19042969 92.83081055 C12.36274708 86.05379491 22.05247464 80.1591818 31.84667969 74.33081055 C31.35490234 74.08024902 30.863125 73.8296875 30.35644531 73.5715332 C4.90921885 60.54666451 -16.02559242 45.43830656 -36.27832031 25.33081055 C-36.82294922 24.79093506 -37.36757812 24.25105957 -37.92871094 23.69482422 C-45.15332031 16.43938923 -45.15332031 16.43938923 -45.15332031 13.33081055 C-41.28138076 11.97481811 -37.40760172 10.62421921 -33.53222656 9.27807617 C-32.22086923 8.82178517 -30.90997675 8.36415549 -29.59960938 7.9050293 C-25.13062848 6.33985627 -20.65105757 4.81142332 -16.15332031 3.33081055 C-15.50061157 3.11545654 -14.84790283 2.90010254 -14.17541504 2.67822266 C-12.27026542 2.05969063 -10.35639703 1.46821625 -8.44238281 0.87768555 C-7.32814941 0.53060547 -6.21391602 0.18352539 -5.06591797 -0.17407227 C-2.15332031 -0.66918945 -2.15332031 -0.66918945 0 0 Z " fill="#DDA354" transform="translate(206.1533203125,360.669189453125)"/>
<path d="M0 0 C1.13066895 0.00090637 1.13066895 0.00090637 2.28417969 0.00183105 C20.56756815 0.04158598 37.8823699 1.61007234 55.625 6.1875 C56.47964844 6.40639893 57.33429688 6.62529785 58.21484375 6.85083008 C67.74230675 9.36342854 76.87706375 12.74995595 86.07128906 16.26757812 C88.236863 17.04768163 90.35606458 17.67720064 92.5859375 18.234375 C98.52305717 20.06768986 101.47648723 22.46567185 104.3828125 27.90234375 C107.20960574 33.84799935 109.45362169 39.9782403 111.625 46.1875 C111.96257324 47.11788086 112.30014648 48.04826172 112.64794922 49.00683594 C119.71870824 68.65453462 124.64510322 89.76626042 124.86328125 110.71875 C124.87302979 111.50416672 124.88277832 112.28958344 124.89282227 113.09880066 C125.07087161 131.17136526 124.55498169 148.46221695 120.625 166.1875 C120.35212158 167.49291748 120.35212158 167.49291748 120.07373047 168.82470703 C111.11810436 211.20186543 88.07690735 247.9289381 57.625 278.1875 C56.86960937 278.96609375 56.11421875 279.7446875 55.3359375 280.546875 C40.2396867 295.99654973 22.34043586 308.50479546 3.625 319.1875 C5.20057807 322.33865613 8.43262586 322.86914767 11.5625 324.125 C31.36318909 332.45373647 48.19700447 345.43580016 63.625 360.1875 C64.52476562 361.04601562 65.42453125 361.90453125 66.3515625 362.7890625 C71.61067285 367.92106444 76.29409395 373.25043012 80.625 379.1875 C77.70551736 381.5855858 75.05720488 382.92157483 71.484375 384.125 C70.49566406 384.46273438 69.50695312 384.80046875 68.48828125 385.1484375 C67.46089844 385.49132812 66.43351563 385.83421875 65.375 386.1875 C63.34866371 386.87413115 61.3226164 387.56161576 59.296875 388.25 C58.32169922 388.57871094 57.34652344 388.90742188 56.34179688 389.24609375 C54.02021531 390.05055264 51.73814399 390.91117437 49.453125 391.8125 C48.82543213 392.03591064 48.19773926 392.25932129 47.55102539 392.48950195 C45.56892418 393.17906906 45.56892418 393.17906906 43.49389648 394.15698242 C40.94824506 395.09611424 39.33333958 395.48543419 36.625 395.1875 C32.63238347 392.52284345 29.62303216 389.06333192 26.4375 385.5 C24.59019332 383.52885858 22.72210713 381.57781957 20.85546875 379.625 C19.95876465 378.67882812 19.06206055 377.73265625 18.13818359 376.7578125 C13.09730305 371.60234423 7.50287449 367.33342328 1.625 363.1875 C0.78122803 362.57720947 0.78122803 362.57720947 -0.07958984 361.95458984 C-24.4209549 344.43943464 -52.83497708 332.66844868 -82 326.125 C-83.13993408 325.86895996 -84.27986816 325.61291992 -85.4543457 325.34912109 C-97.98091768 322.65978121 -110.62476151 321.30809974 -123.375 320.1875 C-123.375 319.8575 -123.375 319.5275 -123.375 319.1875 C-122.76954346 319.12804199 -122.16408691 319.06858398 -121.5402832 319.00732422 C-88.10339168 315.61648808 -57.02263666 308.42392099 -27.375 292.1875 C-26.30378906 291.60355469 -25.23257813 291.01960938 -24.12890625 290.41796875 C-2.29987585 278.09916561 17.07642495 260.75108538 32.625 241.1875 C33.800625 239.75470703 33.800625 239.75470703 35 238.29296875 C54.78593516 213.59225804 69.33779622 183.17443293 75.625 152.1875 C76.16308269 150.01994049 76.70455948 147.85321971 77.25 145.6875 C80.28572481 132.30667878 81.05987876 118.6802414 81.0625 105 C81.06609528 103.85467804 81.06609528 103.85467804 81.06976318 102.68621826 C81.07020222 85.73467039 80.20575253 65.99522606 73.625 50.1875 C70.89806113 49.0960954 68.77918937 48.4970622 65.9375 48 C65.17872559 47.84619873 64.41995117 47.69239746 63.63818359 47.53393555 C62.06877918 47.21845357 60.49706882 46.91424252 58.92333984 46.62109375 C56.79019762 46.21866539 54.67132404 45.77618924 52.55078125 45.3125 C39.7415053 42.57423752 27.23949335 41.98704981 14.1875 42 C13.44220032 41.9992749 12.69690063 41.9985498 11.92901611 41.99780273 C0.06138029 41.99907674 -11.60533505 42.56808664 -23.375 44.1875 C-23.7153125 42.96417969 -24.055625 41.74085938 -24.40625 40.48046875 C-27.51964214 29.56941474 -31.25506812 19.21544636 -35.8359375 8.8359375 C-37.375 5.1875 -37.375 5.1875 -37.375 3.1875 C-35.7510663 2.86950538 -34.12576598 2.55849022 -32.5 2.25 C-31.14261719 1.98896484 -31.14261719 1.98896484 -29.7578125 1.72265625 C-19.84996571 0.15524862 -10.00797538 -0.01477555 0 0 Z " fill="#DDA253" transform="translate(634.375,114.8125)"/>
<path d="M0 0 C0.33 0 0.66 0 1 0 C1.1451001 0.99515625 1.2902002 1.9903125 1.43969727 3.015625 C9.61933613 58.55270767 28.48584453 106.288919 67.50488281 147.42138672 C68.88450663 148.8780568 70.25144957 150.34670916 71.6171875 151.81640625 C99.42863185 180.85358295 138.68107066 200.70098453 177.625 209.1875 C178.38925293 209.35491699 179.15350586 209.52233398 179.94091797 209.69482422 C191.4942576 212.08644697 203.1219165 212.23932964 214.875 212.25 C215.64734985 212.25100708 216.41969971 212.25201416 217.2154541 212.25305176 C234.06705474 212.23823218 249.95996715 210.54491034 266.1640625 205.76953125 C269 205 269 205 272 205 C273.22781235 199.6165151 274.38779402 194.22109559 275.5 188.8125 C275.85578125 187.08966797 275.85578125 187.08966797 276.21875 185.33203125 C278.20402539 174.72202604 279.29386675 164.39782009 279.1953125 153.6015625 C279.1924826 152.40058929 279.18965271 151.19961609 279.18673706 149.96224976 C279.17567679 146.18305855 279.15059985 142.40411774 279.125 138.625 C279.11495187 136.03906596 279.10582926 133.45312815 279.09765625 130.8671875 C279.07578409 124.57804174 279.04245123 118.28903877 279 112 C280.27133674 111.51817074 281.54316014 111.03762543 282.81518555 110.55761719 C283.52337936 110.28987488 284.23157318 110.02213257 284.96122742 109.74627686 C287.54816348 108.79934902 290.16709365 108.01720403 292.8125 107.25 C299.56158114 105.21733556 306.13896276 102.78614849 312.7277832 100.28613281 C313.51241943 99.99061523 314.29705566 99.69509766 315.10546875 99.390625 C315.80824951 99.12282227 316.51103027 98.85501953 317.23510742 98.57910156 C319 98 319 98 321 98 C321.86517473 108.61207997 322.18634117 119.16036837 322.18530273 129.80541992 C322.1874886 132.29949046 322.2057322 134.79311641 322.22460938 137.28710938 C322.28048916 152.72979269 320.94072245 167.75722745 317.375 182.8125 C317.11775146 183.90997559 316.86050293 185.00745117 316.59545898 186.13818359 C314.18129966 195.99891474 310.86564095 205.30051232 306.91894531 214.63964844 C306.03060707 216.92138439 305.36598526 219.17318278 304.7421875 221.5390625 C303.19228392 226.87876555 301.61794551 231.29054668 296.80078125 234.43603516 C291.11149524 237.30542354 285.14406961 239.23342818 279.0546875 241.06494141 C276.21701097 241.93357161 273.44233366 242.89769073 270.65625 243.91796875 C247.37192401 252.26679072 224.0370971 254.4620413 199.5 254.5625 C197.99557343 254.57577835 197.99557343 254.57577835 196.46075439 254.58932495 C177.65875006 254.70189913 159.64098335 252.17280433 141.625 246.6875 C140.12743164 246.2397522 140.12743164 246.2397522 138.59960938 245.78295898 C130.06821681 243.15987205 122.01533126 239.9043699 114 236 C113.34628418 235.68949707 112.69256836 235.37899414 112.01904297 235.05908203 C80.25193835 219.96146461 51.62487613 197.86587898 30 170 C29.236875 169.06542969 28.47375 168.13085938 27.6875 167.16796875 C17.15314815 154.01691091 7.96253041 139.35571775 1 124 C-1.13711406 126.71505633 -2.81448516 129.39864651 -4.34765625 132.4921875 C-9.82363031 143.35190656 -15.53146006 153.3975915 -23 163 C-23.65355469 163.85207031 -24.30710937 164.70414063 -24.98046875 165.58203125 C-26.94646707 168.09121261 -28.95966125 170.5508635 -31 173 C-31.44069824 173.53093262 -31.88139648 174.06186523 -32.33544922 174.60888672 C-51.46532577 197.57380794 -51.46532577 197.57380794 -59 200 C-60.46484375 195.60546875 -61.9296875 191.2109375 -63.39453125 186.81640625 C-63.66056152 186.01895996 -63.9265918 185.22151367 -64.20068359 184.39990234 C-64.72601503 182.82262438 -65.24982431 181.24483847 -65.77197266 179.66650391 C-66.95287784 176.10241452 -68.15217401 172.54914766 -69.421875 169.015625 C-69.86015625 167.77296875 -70.2984375 166.5303125 -70.75 165.25 C-70.98332031 164.61707031 -71.21664063 163.98414063 -71.45703125 163.33203125 C-72.78217863 159.51528941 -73.42932887 156.8380127 -72 153 C-70.546875 151.15625 -70.546875 151.15625 -68.75 149.5 C-68.11449219 148.90058594 -67.47898437 148.30117188 -66.82421875 147.68359375 C-66.22222656 147.12800781 -65.62023437 146.57242188 -65 146 C-63.7934375 144.7934375 -63.7934375 144.7934375 -62.5625 143.5625 C-61.14767726 142.14767726 -59.72409807 140.74087589 -58.265625 139.37109375 C-25.74728269 108.21852182 -9.74004099 63.46955368 -3 20 C-2.83773926 18.97084473 -2.67547852 17.94168945 -2.50830078 16.88134766 C-1.62707359 11.26022767 -0.79025829 5.63460583 0 0 Z " fill="#DDA253" transform="translate(437,503)"/>
<path d="M0 0 C1.91693857 1.00012731 3.82681607 2.01387248 5.73046875 3.0390625 C7.24809814 3.84609619 7.24809814 3.84609619 8.79638672 4.66943359 C27.09647122 14.50072407 43.3058951 25.68026787 59.04296875 39.19921875 C60.69722297 40.61747203 62.35942248 42.02680114 64.04296875 43.41015625 C67.75200129 46.46514064 70.88869637 49.76583151 73.9921875 53.43359375 C75.33194587 54.985322 76.71333937 56.50166519 78.125 57.98828125 C100.03764237 81.10452595 116.72530785 111.22100172 125.91796875 141.6640625 C126.17562012 142.51661621 126.43327148 143.36916992 126.69873047 144.24755859 C140.37585181 190.57808491 137.5467799 238.27400458 121.91796875 283.6640625 C122.62179687 283.34953125 123.325625 283.035 124.05078125 282.7109375 C131.86382012 279.32460734 139.69912537 276.85751588 147.91796875 274.6640625 C149.79935547 274.13619141 149.79935547 274.13619141 151.71875 273.59765625 C174.36938798 267.32766351 196.59490599 267.51037241 219.91796875 267.6640625 C217.58578523 273.7563554 214.59541699 279.53261871 211.68798828 285.36425781 C210.67941429 287.39106183 209.67947788 289.42197711 208.6796875 291.453125 C207.3956992 294.04972148 206.08252628 296.62749725 204.73632812 299.19238281 C203.63021087 301.30422322 202.55887546 303.43541954 201.55273438 305.59667969 C200.20557721 308.14701533 199.1569394 309.84262645 196.91796875 311.6640625 C192.56367974 312.78688639 188.38671341 312.58544775 183.91796875 312.4140625 C181.3020609 312.40959482 178.68608084 312.42183605 176.0703125 312.44921875 C175.39910873 312.45516556 174.72790497 312.46111237 174.03636169 312.46723938 C125.52819923 313.25604591 78.58187474 336.13406359 41.03515625 365.3359375 C38.66596155 367.10541124 36.61492066 368.51014278 33.91796875 369.6640625 C37.04457229 365.35441978 40.26673077 361.22835334 43.76708984 357.21386719 C78.82358313 316.86651939 95.29079828 263.56378033 92.91796875 210.6640625 C91.55265277 192.11198162 88.40897402 173.94149903 82.48046875 156.2890625 C82.2665448 155.65020111 82.05262085 155.01133972 81.83221436 154.3531189 C71.09397504 122.5350758 54.04112306 94.87575332 30.91796875 70.6640625 C30.04527344 69.73851563 29.17257812 68.81296875 28.2734375 67.859375 C17.46288226 56.68477471 4.83691637 47.27669424 -8.08203125 38.6640625 C-19.90765789 39.68911682 -36.5051087 56.92684479 -44.8203125 64.5859375 C-46.87229541 66.47135185 -48.96355079 68.29176283 -51.08203125 70.1015625 C-58.84456344 76.89573052 -65.76470184 84.23476316 -72.171875 92.31640625 C-73.72813627 94.22911182 -75.29719194 95.96874491 -77.08203125 97.6640625 C-81.58202467 96.0158091 -85.64299805 93.77281247 -89.83203125 91.4765625 C-98.33582999 86.88074918 -107.08185982 83.16725814 -116.08203125 79.6640625 C-107.04463141 59.43527114 -83.42902646 41.69032076 -66.08203125 28.6640625 C-65.54175293 28.25091797 -65.00147461 27.83777344 -64.44482422 27.41210938 C-54.77484526 20.04061228 -44.42796898 14.01650735 -33.78662109 8.15869141 C-31.09895726 6.67341627 -28.42853777 5.16000107 -25.7578125 3.64453125 C-24.07520856 2.71175394 -22.39165405 1.78068872 -20.70703125 0.8515625 C-19.94108643 0.41263672 -19.1751416 -0.02628906 -18.38598633 -0.47851562 C-11.44028468 -4.22970268 -7.04384984 -3.39899224 0 0 Z " fill="#DCA253" transform="translate(447.08203125,16.3359375)"/>
<path d="M0 0 C2.79904696 0.01075804 5.5974562 0.00001421 8.39648438 -0.01269531 C18.83690531 -0.02063615 28.86733622 0.52409483 39.16992188 2.26074219 C40.35344238 2.45216797 41.53696289 2.64359375 42.75634766 2.84082031 C60.83041926 5.89374356 78.93784957 11.76170208 95.16992188 20.26074219 C96.49439164 20.91132387 97.81996159 21.55966937 99.14648438 22.20605469 C116.00083436 30.58097272 131.16603494 41.74621892 145.16992188 54.26074219 C146.53890625 55.46537109 146.53890625 55.46537109 147.93554688 56.69433594 C156.53471256 64.32802644 164.011941 72.25135604 171.16992188 81.26074219 C171.94207031 82.20433594 172.71421875 83.14792969 173.50976562 84.12011719 C183.91493163 97.13922279 192.31835464 111.59255514 200.16992188 126.26074219 C200.62093262 125.35702881 200.62093262 125.35702881 201.08105469 124.43505859 C206.39660798 113.85015674 211.76989294 103.37046542 218.35742188 93.51074219 C218.80698242 92.83479004 219.25654297 92.15883789 219.71972656 91.46240234 C227.13923944 80.62440585 235.90329596 71.24729717 245.23242188 62.07324219 C246.29995295 61.01577756 247.36701279 59.95783699 248.43359375 58.89941406 C251.00698643 56.34770634 253.58660555 53.80240762 256.16992188 51.26074219 C259.58904215 52.97030232 260.01840109 57.03882277 261.17382812 60.49511719 C261.59884865 61.74038177 261.59884865 61.74038177 262.03245544 63.01080322 C262.6318194 64.77164205 263.227589 66.53370775 263.82006836 68.296875 C264.72483204 70.98816562 265.64069817 73.67546818 266.55859375 76.36230469 C267.13933406 78.07301754 267.71943296 79.78394829 268.29882812 81.49511719 C268.57175186 82.29737732 268.8446756 83.09963745 269.12586975 83.9262085 C272.00869747 92.5288671 272.00869747 92.5288671 272.16992188 95.26074219 C270.95751953 97.03076172 270.95751953 97.03076172 269.08398438 98.64355469 C268.40489014 99.24748047 267.7257959 99.85140625 267.02612305 100.47363281 C266.28982666 101.10462891 265.55353027 101.735625 264.79492188 102.38574219 C258.23931772 108.26617972 252.45553612 114.18748875 247.16992188 121.26074219 C246.28063701 122.42222965 245.39131169 123.58368615 244.50195312 124.74511719 C217.94456063 159.81874602 206.17644774 199.02791886 201.16992188 242.26074219 C200.83992188 242.26074219 200.50992187 242.26074219 200.16992188 242.26074219 C200.07493408 241.67397705 199.97994629 241.08721191 199.88208008 240.48266602 C192.00514486 192.32817958 176.65029587 150.09219651 143.31835938 113.63183594 C141.40765084 111.52310851 139.5669204 109.37294114 137.73242188 107.19824219 C105.62577407 70.54681775 54.05279133 46.92813829 6.16992188 42.26074219 C3.33513677 42.10397696 0.50473302 42.05151944 -2.33398438 42.02246094 C-3.52297836 42.00797409 -3.52297836 42.00797409 -4.73599243 41.99319458 C-7.28823578 41.96847967 -9.84022818 41.95581308 -12.39257812 41.94824219 C-13.2629068 41.94529144 -14.13323547 41.9423407 -15.02993774 41.93930054 C-28.98433451 41.92853759 -42.23078695 42.93160652 -55.83007812 46.26074219 C-56.84352295 46.50026611 -56.84352295 46.50026611 -57.87744141 46.74462891 C-60.50523822 47.36855282 -63.11849377 48.02142583 -65.72070312 48.74511719 C-67.83007812 49.26074219 -67.83007812 49.26074219 -70.83007812 49.26074219 C-70.97703125 50.19466797 -70.97703125 50.19466797 -71.12695312 51.14746094 C-71.27648437 52.07171875 -71.42601562 52.99597656 -71.58007812 53.94824219 C-71.75313477 55.02501221 -71.92619141 56.10178223 -72.10449219 57.21118164 C-72.58039005 60.00907212 -73.16448815 62.75903707 -73.81835938 65.52050781 C-77.35767137 81.04313078 -77.29181335 96.22006625 -77.08007812 112.07324219 C-77.05995895 114.72361914 -77.04171788 117.37401104 -77.02539062 120.02441406 C-76.98187982 126.43685663 -76.9154072 132.84872661 -76.83007812 139.26074219 C-77.54354401 139.45773712 -78.25700989 139.65473206 -78.99209595 139.85769653 C-82.26435282 140.76282413 -85.53549785 141.67190936 -88.80664062 142.58105469 C-90.48995483 143.04572144 -90.48995483 143.04572144 -92.20727539 143.51977539 C-100.23533075 145.7551761 -108.04266311 148.28825885 -115.83007812 151.26074219 C-116.82007812 151.59074219 -117.81007813 151.92074219 -118.83007812 152.26074219 C-119.66361023 145.67512538 -120.01625876 139.22013645 -120.06835938 132.58496094 C-120.07643112 131.57971878 -120.08450287 130.57447662 -120.09281921 129.53877258 C-120.10658195 127.41673463 -120.11733862 125.29467527 -120.12524414 123.17260742 C-120.13669462 121.04265666 -120.15703452 118.91273299 -120.18676758 116.78295898 C-120.37634345 103.15573731 -119.51714886 90.53982901 -116.31063843 77.27264404 C-115.62621714 74.40726282 -115.0461925 71.52157449 -114.45507812 68.63574219 C-112.467471 60.32585281 -109.77610125 52.27429565 -106.83007812 44.26074219 C-106.49169922 43.33938477 -106.15332031 42.41802734 -105.8046875 41.46875 C-104.72478182 38.59192018 -103.59840796 35.73789862 -102.45507812 32.88574219 C-101.94726807 31.53899414 -101.94726807 31.53899414 -101.42919922 30.16503906 C-99.70007914 26.00113314 -98.33163264 23.06593348 -94.23632812 20.94042969 C-92.77885513 20.35180216 -91.30870036 19.7940209 -89.83007812 19.26074219 C-88.05635961 18.52183307 -86.28293983 17.78220655 -84.50976562 17.04199219 C-74.06791057 12.90014582 -63.74893792 8.95566355 -52.83007812 6.26074219 C-51.48759148 5.91063025 -50.14514569 5.56036163 -48.80273438 5.20996094 C-32.55335756 1.11358759 -16.7138589 -0.07623865 0 0 Z " fill="#DDA253" transform="translate(236.830078125,114.7392578125)"/>
<path d="M0 0 C0.66 1.32 1.32 2.64 2 4 C-1.49359465 7.59634744 -5.11098131 10.83451967 -9 14 C-9.66 13.67 -10.32 13.34 -11 13 C-10.06027344 11.96939453 -10.06027344 11.96939453 -9.1015625 10.91796875 C-8.28429687 10.01691406 -7.46703125 9.11585938 -6.625 8.1875 C-5.81289063 7.29417969 -5.00078125 6.40085937 -4.1640625 5.48046875 C-1.90927093 3.00367326 -1.90927093 3.00367326 0 0 Z " fill="#CC934C" transform="translate(492,372)"/>
<path d="M0 0 C0.33 0 0.66 0 1 0 C1.36463732 1.74784829 1.7163078 3.49840502 2.0625 5.25 C2.25972656 6.22453125 2.45695312 7.1990625 2.66015625 8.203125 C2.98397535 10.868119 2.85503199 12.48871723 2 15 C1.01 14.67 0.02 14.34 -1 14 C-1.33 14.99 -1.66 15.98 -2 17 C-1.34 11.39 -0.68 5.78 0 0 Z " fill="#B8844A" transform="translate(437,503)"/>
<path d="M0 0 C1.89492188 0.15275391 1.89492188 0.15275391 3.828125 0.30859375 C4.79234375 0.39238281 5.7565625 0.47617187 6.75 0.5625 C6.75 0.8925 6.75 1.2225 6.75 1.5625 C0.15 2.2225 -6.45 2.8825 -13.25 3.5625 C-11.25 0.5625 -11.25 0.5625 -9.578125 -0.15234375 C-6.32782565 -0.55045089 -3.26016705 -0.27168059 0 0 Z " fill="#D79B4F" transform="translate(356.25,433.4375)"/>
<path d="M0 0 C3.23861303 1.44424635 5.61969163 3.25772247 8.25 5.625 C8.95640625 6.25664062 9.6628125 6.88828125 10.390625 7.5390625 C10.92171875 8.02117187 11.4528125 8.50328125 12 9 C11.01 9.99 10.02 10.98 9 12 C7.49707257 10.18992669 5.99772829 8.37687764 4.5 6.5625 C3.6646875 5.55316406 2.829375 4.54382813 1.96875 3.50390625 C0 1 0 1 0 0 Z " fill="#C38B4C" transform="translate(482,478)"/>
<path d="M0 0 C0.66 0.99 1.32 1.98 2 3 C-3.61 2.67 -9.22 2.34 -15 2 C-15 1.67 -15 1.34 -15 1 C-3.90380859 -0.38085938 -3.90380859 -0.38085938 0 0 Z " fill="#CE944D" transform="translate(526,433)"/>
<path d="M0 0 C0 3.77910478 -0.99703962 4.46106101 -3.5 7.1875 C-4.1496875 7.90292969 -4.799375 8.61835938 -5.46875 9.35546875 C-5.9740625 9.89816406 -6.479375 10.44085938 -7 11 C-7.66 10.67 -8.32 10.34 -9 10 C-7.61811547 6.78956118 -6.07578097 4.95063635 -3.375 2.75 C-2.74335938 2.22921875 -2.11171875 1.7084375 -1.4609375 1.171875 C-0.73777344 0.59179688 -0.73777344 0.59179688 0 0 Z " fill="#BA874B" transform="translate(391,478)"/>
<path d="M0 0 C2.19219402 2.36689329 2.9871902 3.51727269 3.07421875 6.796875 C2.94660156 7.77140625 2.81898438 8.7459375 2.6875 9.75 C2.56761719 10.73484375 2.44773437 11.7196875 2.32421875 12.734375 C2.21722656 13.48203125 2.11023438 14.2296875 2 15 C1.67 15 1.34 15 1 15 C-0.03590199 9.94997778 -0.10251672 5.12583611 0 0 Z " fill="#D49C5B" transform="translate(436,342)"/>
<path d="M0 0 C0.99 0.33 1.98 0.66 3 1 C0.03839944 4.12613393 -2.09567131 6.04783565 -6 8 C-4.02 5.36 -2.04 2.72 0 0 Z " fill="#B88246" transform="translate(487,378)"/>
<path d="M0 0 C2.31 1.98 4.62 3.96 7 6 C6.67 6.66 6.34 7.32 6 8 C3.69 6.02 1.38 4.04 -1 2 C-0.67 1.34 -0.34 0.68 0 0 Z " fill="#B17B3D" transform="translate(386,378)"/>
</svg>
